STARTFONT 2.1
FONT -Linotype-Helvetica-Bold-O-Normal-Sans-10-100-72-72-P-57-ISO8859-1
SIZE 10 72 72
FONTBOUNDINGBOX 15 12 -4 -2

STARTPROPERTIES 22
FONTNAME_REGISTRY "-"
FOUNDRY "Linotype"
FAMILY_NAME "Helvetica"
WEIGHT_NAME "Bold"
SLANT "O"
SETWIDTH_NAME "Normal"
ADD_STYLE_NAME "Sans"
PIXEL_SIZE 10
POINT_SIZE 100
RESOLUTION_X 72
RESOLUTION_Y 72
SPACING "P"
CHARSET_REGISTRY "ISO8859"
CHARSET_ENCODING "1"
FULL_NAME "Helvetica-BoldOblique"
AVERAGE_WIDTH 57
WEIGHT 10
X_HEIGHT 5
QUAD_WIDTH 6
DEFAULT_CHAR 32
FONT_DESCENT 2
FONT_ASCENT 10
ENDPROPERTIES

CHARS 190

STARTCHAR space
ENCODING 32
SWIDTH 278 0
DWIDTH 3 0
BBX 1 1 0 0
BITMAP
00
ENDCHAR

STARTCHAR exclam
ENCODING 33
SWIDTH 333 0
DWIDTH 3 0
BBX 3 7 1 0
BITMAP
60
60
40
40
40
00
C0
ENDCHAR

STARTCHAR quotedbl
ENCODING 34
SWIDTH 474 0
DWIDTH 5 0
BBX 4 3 2 4
BITMAP
F0
A0
A0
ENDCHAR

STARTCHAR numbersign
ENCODING 35
SWIDTH 556 0
DWIDTH 6 0
BBX 6 7 0 0
BITMAP
14
28
7C
48
F8
50
A0
ENDCHAR

STARTCHAR dollar
ENCODING 36
SWIDTH 556 0
DWIDTH 6 0
BBX 6 9 1 -2
BITMAP
38
54
50
30
28
A8
70
40
40
ENDCHAR

STARTCHAR percent
ENCODING 37
SWIDTH 889 0
DWIDTH 9 0
BBX 8 7 1 0
BITMAP
72
94
98
F7
19
29
4E
ENDCHAR

STARTCHAR ampersand
ENCODING 38
SWIDTH 722 0
DWIDTH 7 0
BBX 6 7 1 0
BITMAP
38
28
30
54
88
98
EC
ENDCHAR

STARTCHAR quoteright
ENCODING 39
SWIDTH 278 0
DWIDTH 3 0
BBX 2 3 2 4
BITMAP
C0
40
80
ENDCHAR

STARTCHAR parenleft
ENCODING 40
SWIDTH 333 0
DWIDTH 3 0
BBX 4 9 1 -2
BITMAP
30
40
40
80
80
80
80
80
40
ENDCHAR

STARTCHAR parenright
ENCODING 41
SWIDTH 333 0
DWIDTH 3 0
BBX 4 9 0 -2
BITMAP
20
10
10
10
10
10
20
20
C0
ENDCHAR

STARTCHAR asterisk
ENCODING 42
SWIDTH 389 0
DWIDTH 4 0
BBX 3 3 1 4
BITMAP
40
E0
A0
ENDCHAR

STARTCHAR plus
ENCODING 43
SWIDTH 584 0
DWIDTH 6 0
BBX 4 5 1 0
BITMAP
20
20
F0
40
40
ENDCHAR

STARTCHAR comma
ENCODING 44
SWIDTH 278 0
DWIDTH 3 0
BBX 2 3 0 -2
BITMAP
C0
40
80
ENDCHAR

STARTCHAR minus
ENCODING 45
SWIDTH 584 0
DWIDTH 6 0
BBX 5 1 1 2
BITMAP
F8
ENDCHAR

STARTCHAR period
ENCODING 46
SWIDTH 278 0
DWIDTH 3 0
BBX 2 1 1 0
BITMAP
C0
ENDCHAR

STARTCHAR slash
ENCODING 47
SWIDTH 278 0
DWIDTH 3 0
BBX 5 7 0 0
BITMAP
08
10
20
20
40
40
80
ENDCHAR

STARTCHAR zero
ENCODING 48
SWIDTH 556 0
DWIDTH 6 0
BBX 5 7 1 0
BITMAP
38
48
48
88
90
90
E0
ENDCHAR

STARTCHAR one
ENCODING 49
SWIDTH 556 0
DWIDTH 6 0
BBX 3 7 2 0
BITMAP
20
20
E0
20
40
40
40
ENDCHAR

STARTCHAR two
ENCODING 50
SWIDTH 556 0
DWIDTH 6 0
BBX 6 7 0 0
BITMAP
38
44
04
08
30
40
F8
ENDCHAR

STARTCHAR three
ENCODING 51
SWIDTH 556 0
DWIDTH 6 0
BBX 5 7 1 0
BITMAP
38
48
08
38
08
88
70
ENDCHAR

STARTCHAR four
ENCODING 52
SWIDTH 556 0
DWIDTH 6 0
BBX 5 7 1 0
BITMAP
18
28
48
90
F8
10
10
ENDCHAR

STARTCHAR five
ENCODING 53
SWIDTH 556 0
DWIDTH 6 0
BBX 6 7 1 0
BITMAP
3C
40
78
88
08
88
F0
ENDCHAR

STARTCHAR six
ENCODING 54
SWIDTH 556 0
DWIDTH 6 0
BBX 5 7 1 0
BITMAP
38
40
70
C8
88
88
70
ENDCHAR

STARTCHAR seven
ENCODING 55
SWIDTH 556 0
DWIDTH 6 0
BBX 5 7 1 0
BITMAP
F8
08
10
20
40
40
80
ENDCHAR

STARTCHAR eight
ENCODING 56
SWIDTH 556 0
DWIDTH 6 0
BBX 6 7 1 0
BITMAP
38
44
44
78
88
88
70
ENDCHAR

STARTCHAR nine
ENCODING 57
SWIDTH 556 0
DWIDTH 6 0
BBX 5 7 1 0
BITMAP
38
48
48
48
38
10
E0
ENDCHAR

STARTCHAR colon
ENCODING 58
SWIDTH 333 0
DWIDTH 3 0
BBX 3 5 1 0
BITMAP
60
00
00
00
C0
ENDCHAR

STARTCHAR semicolon
ENCODING 59
SWIDTH 333 0
DWIDTH 3 0
BBX 3 7 1 -2
BITMAP
60
00
00
00
C0
40
80
ENDCHAR

STARTCHAR less
ENCODING 60
SWIDTH 584 0
DWIDTH 6 0
BBX 6 4 1 0
BITMAP
1C
E0
E0
18
ENDCHAR

STARTCHAR equal
ENCODING 61
SWIDTH 584 0
DWIDTH 6 0
BBX 6 3 1 1
BITMAP
7C
00
F8
ENDCHAR

STARTCHAR greater
ENCODING 62
SWIDTH 584 0
DWIDTH 6 0
BBX 6 4 0 0
BITMAP
60
1C
1C
E0
ENDCHAR

STARTCHAR question
ENCODING 63
SWIDTH 611 0
DWIDTH 6 0
BBX 5 7 2 0
BITMAP
70
C8
18
30
60
00
60
ENDCHAR

STARTCHAR at
ENCODING 64
SWIDTH 975 0
DWIDTH 10 0
BBX 10 9 1 -2
BITMAP
0F00
3080
4F80
5240
A280
A480
9F00
C000
3C00
ENDCHAR

STARTCHAR A
ENCODING 65
SWIDTH 722 0
DWIDTH 7 0
BBX 6 7 -1 0
BITMAP
0C
0C
14
24
44
7C
84
ENDCHAR

STARTCHAR B
ENCODING 66
SWIDTH 722 0
DWIDTH 7 0
BBX 7 7 1 0
BITMAP
3C
42
42
7C
44
44
F8
ENDCHAR

STARTCHAR C
ENCODING 67
SWIDTH 722 0
DWIDTH 7 0
BBX 7 7 1 0
BITMAP
3C
42
80
80
80
84
78
ENDCHAR

STARTCHAR D
ENCODING 68
SWIDTH 722 0
DWIDTH 7 0
BBX 7 7 1 0
BITMAP
3C
42
42
42
44
44
F8
ENDCHAR

STARTCHAR E
ENCODING 69
SWIDTH 667 0
DWIDTH 7 0
BBX 7 7 1 0
BITMAP
3E
40
40
7C
40
40
FC
ENDCHAR

STARTCHAR F
ENCODING 70
SWIDTH 611 0
DWIDTH 6 0
BBX 7 7 1 0
BITMAP
3E
40
40
7C
40
80
80
ENDCHAR

STARTCHAR G
ENCODING 71
SWIDTH 778 0
DWIDTH 8 0
BBX 7 7 1 0
BITMAP
3C
42
80
8E
84
84
7C
ENDCHAR

STARTCHAR H
ENCODING 72
SWIDTH 722 0
DWIDTH 7 0
BBX 7 7 1 0
BITMAP
22
22
44
7C
44
88
88
ENDCHAR

STARTCHAR I
ENCODING 73
SWIDTH 278 0
DWIDTH 3 0
BBX 3 7 1 0
BITMAP
20
20
40
40
40
80
80
ENDCHAR

STARTCHAR J
ENCODING 74
SWIDTH 556 0
DWIDTH 6 0
BBX 6 7 1 0
BITMAP
04
04
08
08
88
90
60
ENDCHAR

STARTCHAR K
ENCODING 75
SWIDTH 722 0
DWIDTH 7 0
BBX 7 7 1 0
BITMAP
22
44
48
70
50
48
84
ENDCHAR

STARTCHAR L
ENCODING 76
SWIDTH 611 0
DWIDTH 6 0
BBX 5 7 1 0
BITMAP
20
40
40
40
40
40
F8
ENDCHAR

STARTCHAR M
ENCODING 77
SWIDTH 833 0
DWIDTH 8 0
BBX 8 7 1 0
BITMAP
33
33
55
55
5A
5A
92
ENDCHAR

STARTCHAR N
ENCODING 78
SWIDTH 722 0
DWIDTH 7 0
BBX 7 7 1 0
BITMAP
62
62
52
54
8C
8C
8C
ENDCHAR

STARTCHAR O
ENCODING 79
SWIDTH 778 0
DWIDTH 8 0
BBX 7 7 1 0
BITMAP
3C
66
C2
82
86
CC
78
ENDCHAR

STARTCHAR P
ENCODING 80
SWIDTH 667 0
DWIDTH 7 0
BBX 7 7 1 0
BITMAP
3C
42
42
7C
40
80
80
ENDCHAR

STARTCHAR Q
ENCODING 81
SWIDTH 778 0
DWIDTH 8 0
BBX 7 7 1 0
BITMAP
3C
66
C2
82
9A
CC
74
ENDCHAR

STARTCHAR R
ENCODING 82
SWIDTH 722 0
DWIDTH 7 0
BBX 7 7 1 0
BITMAP
3E
42
42
7C
44
44
88
ENDCHAR

STARTCHAR S
ENCODING 83
SWIDTH 667 0
DWIDTH 7 0
BBX 5 7 2 0
BITMAP
78
88
80
70
08
88
F0
ENDCHAR

STARTCHAR T
ENCODING 84
SWIDTH 611 0
DWIDTH 6 0
BBX 6 7 1 0
BITMAP
FC
20
20
20
40
40
40
ENDCHAR

STARTCHAR U
ENCODING 85
SWIDTH 722 0
DWIDTH 7 0
BBX 7 7 1 0
BITMAP
22
22
44
44
88
88
70
ENDCHAR

STARTCHAR V
ENCODING 86
SWIDTH 667 0
DWIDTH 7 0
BBX 6 7 2 0
BITMAP
84
88
88
90
60
60
40
ENDCHAR

STARTCHAR W
ENCODING 87
SWIDTH 944 0
DWIDTH 9 0
BBX 9 7 2 0
BITMAP
8880
9900
9900
AA00
EA00
4C00
4C00
ENDCHAR

STARTCHAR X
ENCODING 88
SWIDTH 667 0
DWIDTH 7 0
BBX 8 7 0 0
BITMAP
23
34
18
18
28
2C
C4
ENDCHAR

STARTCHAR Y
ENCODING 89
SWIDTH 667 0
DWIDTH 7 0
BBX 6 7 2 0
BITMAP
84
48
50
20
20
20
40
ENDCHAR

STARTCHAR Z
ENCODING 90
SWIDTH 611 0
DWIDTH 6 0
BBX 7 7 0 0
BITMAP
7E
04
08
10
20
40
FC
ENDCHAR

STARTCHAR bracketleft
ENCODING 91
SWIDTH 333 0
DWIDTH 3 0
BBX 4 9 0 -2
BITMAP
30
20
20
40
40
40
80
80
E0
ENDCHAR

STARTCHAR backslash
ENCODING 92
SWIDTH 278 0
DWIDTH 3 0
BBX 1 7 1 0
BITMAP
80
80
80
80
80
80
80
ENDCHAR

STARTCHAR bracketright
ENCODING 93
SWIDTH 333 0
DWIDTH 3 0
BBX 4 9 0 -2
BITMAP
70
10
10
20
20
20
40
40
C0
ENDCHAR

STARTCHAR asciicircum
ENCODING 94
SWIDTH 584 0
DWIDTH 6 0
BBX 5 4 1 3
BITMAP
30
30
50
88
ENDCHAR

STARTCHAR underscore
ENCODING 95
SWIDTH 556 0
DWIDTH 6 0
BBX 6 1 0 -2
BITMAP
FC
ENDCHAR

STARTCHAR quoteleft
ENCODING 96
SWIDTH 278 0
DWIDTH 3 0
BBX 2 3 2 4
BITMAP
40
80
C0
ENDCHAR

STARTCHAR a
ENCODING 97
SWIDTH 556 0
DWIDTH 6 0
BBX 5 5 0 0
BITMAP
38
48
38
C8
F8
ENDCHAR

STARTCHAR b
ENCODING 98
SWIDTH 611 0
DWIDTH 6 0
BBX 6 7 1 0
BITMAP
20
40
78
44
44
48
B0
ENDCHAR

STARTCHAR c
ENCODING 99
SWIDTH 556 0
DWIDTH 6 0
BBX 5 5 1 0
BITMAP
78
88
80
88
70
ENDCHAR

STARTCHAR d
ENCODING 100
SWIDTH 611 0
DWIDTH 6 0
BBX 6 7 1 0
BITMAP
04
04
74
C8
88
88
F8
ENDCHAR

STARTCHAR e
ENCODING 101
SWIDTH 556 0
DWIDTH 6 0
BBX 5 5 1 0
BITMAP
70
C8
F8
80
78
ENDCHAR

STARTCHAR f
ENCODING 102
SWIDTH 333 0
DWIDTH 3 0
BBX 4 7 1 0
BITMAP
30
40
E0
40
40
40
80
ENDCHAR

STARTCHAR g
ENCODING 103
SWIDTH 611 0
DWIDTH 6 0
BBX 6 7 0 -2
BITMAP
3C
64
44
48
78
08
F0
ENDCHAR

STARTCHAR h
ENCODING 104
SWIDTH 611 0
DWIDTH 6 0
BBX 6 7 1 0
BITMAP
20
40
78
44
44
48
88
ENDCHAR

STARTCHAR i
ENCODING 105
SWIDTH 278 0
DWIDTH 3 0
BBX 3 7 1 0
BITMAP
20
00
40
40
40
80
80
ENDCHAR

STARTCHAR j
ENCODING 106
SWIDTH 278 0
DWIDTH 3 0
BBX 4 9 0 -2
BITMAP
10
00
20
20
20
20
40
40
C0
ENDCHAR

STARTCHAR k
ENCODING 107
SWIDTH 556 0
DWIDTH 6 0
BBX 6 7 1 0
BITMAP
20
40
4C
50
70
50
88
ENDCHAR

STARTCHAR l
ENCODING 108
SWIDTH 278 0
DWIDTH 3 0
BBX 3 7 1 0
BITMAP
20
20
40
40
40
80
80
ENDCHAR

STARTCHAR m
ENCODING 109
SWIDTH 889 0
DWIDTH 9 0
BBX 9 5 1 0
BITMAP
7F00
4880
4880
4900
9100
ENDCHAR

STARTCHAR n
ENCODING 110
SWIDTH 611 0
DWIDTH 6 0
BBX 6 5 1 0
BITMAP
78
44
44
44
88
ENDCHAR

STARTCHAR o
ENCODING 111
SWIDTH 611 0
DWIDTH 6 0
BBX 6 5 1 0
BITMAP
38
4C
84
C8
70
ENDCHAR

STARTCHAR p
ENCODING 112
SWIDTH 611 0
DWIDTH 6 0
BBX 6 7 0 -2
BITMAP
3C
64
44
4C
78
C0
80
ENDCHAR

STARTCHAR q
ENCODING 113
SWIDTH 611 0
DWIDTH 6 0
BBX 6 7 1 -2
BITMAP
7C
C8
88
D8
E8
18
10
ENDCHAR

STARTCHAR r
ENCODING 114
SWIDTH 389 0
DWIDTH 4 0
BBX 4 5 1 0
BITMAP
70
40
40
40
80
ENDCHAR

STARTCHAR s
ENCODING 115
SWIDTH 556 0
DWIDTH 6 0
BBX 5 5 1 0
BITMAP
38
40
30
88
70
ENDCHAR

STARTCHAR t
ENCODING 116
SWIDTH 333 0
DWIDTH 3 0
BBX 3 7 1 0
BITMAP
40
E0
40
40
40
80
80
ENDCHAR

STARTCHAR u
ENCODING 117
SWIDTH 611 0
DWIDTH 6 0
BBX 5 5 1 0
BITMAP
48
48
90
90
F0
ENDCHAR

STARTCHAR v
ENCODING 118
SWIDTH 556 0
DWIDTH 6 0
BBX 5 5 1 0
BITMAP
88
90
90
60
40
ENDCHAR

STARTCHAR w
ENCODING 119
SWIDTH 778 0
DWIDTH 8 0
BBX 7 5 1 0
BITMAP
92
BA
AC
EC
48
ENDCHAR

STARTCHAR x
ENCODING 120
SWIDTH 556 0
DWIDTH 6 0
BBX 6 5 0 0
BITMAP
4C
28
30
50
C8
ENDCHAR

STARTCHAR y
ENCODING 121
SWIDTH 556 0
DWIDTH 6 0
BBX 6 7 0 -2
BITMAP
44
48
50
30
20
20
C0
ENDCHAR

STARTCHAR z
ENCODING 122
SWIDTH 500 0
DWIDTH 5 0
BBX 6 5 0 0
BITMAP
7C
18
20
40
F8
ENDCHAR

STARTCHAR braceleft
ENCODING 123
SWIDTH 389 0
DWIDTH 4 0
BBX 4 9 1 -2
BITMAP
30
40
40
80
40
40
80
80
C0
ENDCHAR

STARTCHAR bar
ENCODING 124
SWIDTH 280 0
DWIDTH 3 0
BBX 3 9 1 -2
BITMAP
20
20
40
40
40
40
80
80
80
ENDCHAR

STARTCHAR braceright
ENCODING 125
SWIDTH 389 0
DWIDTH 4 0
BBX 4 9 0 -2
BITMAP
30
10
10
20
20
10
20
20
C0
ENDCHAR

STARTCHAR asciitilde
ENCODING 126
SWIDTH 584 0
DWIDTH 6 0
BBX 5 2 1 1
BITMAP
68
B0
ENDCHAR

STARTCHAR exclamdown
ENCODING 161
SWIDTH 333 0
DWIDTH 3 0
BBX 3 7 0 -2
BITMAP
60
00
40
40
40
C0
C0
ENDCHAR

STARTCHAR cent
ENCODING 162
SWIDTH 556 0
DWIDTH 6 0
BBX 5 7 1 -2
BITMAP
78
A8
A0
A0
F8
40
40
ENDCHAR

STARTCHAR sterling
ENCODING 163
SWIDTH 556 0
DWIDTH 6 0
BBX 6 7 0 0
BITMAP
38
44
40
70
40
40
F8
ENDCHAR

STARTCHAR currency
ENCODING 164
SWIDTH 556 0
DWIDTH 6 0
BBX 6 5 1 0
BITMAP
7C
48
48
48
F8
ENDCHAR

STARTCHAR yen
ENCODING 165
SWIDTH 556 0
DWIDTH 6 0
BBX 6 7 1 0
BITMAP
44
48
30
F8
20
F0
40
ENDCHAR

STARTCHAR brokenbar
ENCODING 166
SWIDTH 280 0
DWIDTH 3 0
BBX 3 9 1 -2
BITMAP
20
40
40
00
40
40
80
80
80
ENDCHAR

STARTCHAR section
ENCODING 167
SWIDTH 556 0
DWIDTH 6 0
BBX 5 9 1 -2
BITMAP
30
48
C0
B0
88
68
18
90
60
ENDCHAR

STARTCHAR dieresis
ENCODING 168
SWIDTH 333 0
DWIDTH 3 0
BBX 3 1 1 6
BITMAP
A0
ENDCHAR

STARTCHAR copyright
ENCODING 169
SWIDTH 737 0
DWIDTH 7 0
BBX 8 7 0 0
BITMAP
1E
61
9D
A1
A5
BE
78
ENDCHAR

STARTCHAR ordfeminine
ENCODING 170
SWIDTH 370 0
DWIDTH 4 0
BBX 3 4 1 3
BITMAP
E0
60
E0
E0
ENDCHAR

STARTCHAR guillemotleft
ENCODING 171
SWIDTH 556 0
DWIDTH 6 0
BBX 4 3 1 1
BITMAP
50
A0
F0
ENDCHAR

STARTCHAR logicalnot
ENCODING 172
SWIDTH 584 0
DWIDTH 6 0
BBX 5 3 1 1
BITMAP
F8
10
10
ENDCHAR

STARTCHAR hyphen
ENCODING 173
SWIDTH 333 0
DWIDTH 3 0
BBX 3 1 1 2
BITMAP
E0
ENDCHAR

STARTCHAR registered
ENCODING 174
SWIDTH 737 0
DWIDTH 7 0
BBX 7 7 1 0
BITMAP
3C
5E
A6
BA
AA
E4
78
ENDCHAR

STARTCHAR macron
ENCODING 175
SWIDTH 333 0
DWIDTH 3 0
BBX 3 1 2 6
BITMAP
E0
ENDCHAR

STARTCHAR degree
ENCODING 176
SWIDTH 400 0
DWIDTH 6 0
BBX 3 3 2 4
BITMAP
E0
A0
E0
ENDCHAR

STARTCHAR plusminus
ENCODING 177
SWIDTH 584 0
DWIDTH 6 0
BBX 5 5 1 0
BITMAP
10
78
20
20
F0
ENDCHAR

STARTCHAR twosuperior
ENCODING 178
SWIDTH 333 0
DWIDTH 3 0
BBX 3 4 -3 3
BITMAP
60
20
40
E0
ENDCHAR

STARTCHAR threesuperior
ENCODING 179
SWIDTH 333 0
DWIDTH 3 0
BBX 3 4 -3 3
BITMAP
60
E0
20
E0
ENDCHAR

STARTCHAR acute
ENCODING 180
SWIDTH 333 0
DWIDTH 3 0
BBX 2 2 2 5
BITMAP
40
80
ENDCHAR

STARTCHAR mu
ENCODING 181
SWIDTH 611 0
DWIDTH 6 0
BBX 6 7 0 -2
BITMAP
24
24
48
48
7C
40
80
ENDCHAR

STARTCHAR paragraph
ENCODING 182
SWIDTH 556 0
DWIDTH 6 0
BBX 6 9 1 -2
BITMAP
7C
E8
E8
E8
30
50
50
50
A0
ENDCHAR

STARTCHAR periodcentered
ENCODING 183
SWIDTH 278 0
DWIDTH 5 0
BBX 2 2 2 3
BITMAP
C0
C0
ENDCHAR

STARTCHAR cedilla
ENCODING 184
SWIDTH 333 0
DWIDTH 3 0
BBX 4 3 0 -2
BITMAP
30
A0
E0
ENDCHAR

STARTCHAR onesuperior
ENCODING 185
SWIDTH 333 0
DWIDTH 3 0
BBX 2 4 -4 3
BITMAP
40
C0
40
80
ENDCHAR

STARTCHAR ordmasculine
ENCODING 186
SWIDTH 365 0
DWIDTH 4 0
BBX 4 5 1 2
BITMAP
70
90
90
E0
F0
ENDCHAR

STARTCHAR guillemotright
ENCODING 187
SWIDTH 556 0
DWIDTH 6 0
BBX 4 3 1 1
BITMAP
A0
50
F0
ENDCHAR

STARTCHAR onequarter
ENCODING 188
SWIDTH 834 0
DWIDTH 8 0
BBX 7 7 -4 0
BITMAP
42
C4
48
96
26
4E
84
ENDCHAR

STARTCHAR onehalf
ENCODING 189
SWIDTH 834 0
DWIDTH 8 0
BBX 8 7 -4 0
BITMAP
42
C4
48
96
23
4C
8E
ENDCHAR

STARTCHAR threequarters
ENCODING 190
SWIDTH 834 0
DWIDTH 8 0
BBX 8 7 -3 0
BITMAP
61
E2
24
EB
13
27
42
ENDCHAR

STARTCHAR questiondown
ENCODING 191
SWIDTH 611 0
DWIDTH 6 0
BBX 5 7 1 -2
BITMAP
10
00
30
60
C0
98
70
ENDCHAR

STARTCHAR Agrave
ENCODING 192
SWIDTH 722 0
DWIDTH 7 0
BBX 6 9 -1 0
BITMAP
10
08
0C
0C
14
24
44
7C
84
ENDCHAR

STARTCHAR Aacute
ENCODING 193
SWIDTH 722 0
DWIDTH 7 0
BBX 6 9 -1 0
BITMAP
04
08
0C
0C
14
24
44
7C
84
ENDCHAR

STARTCHAR Acircumflex
ENCODING 194
SWIDTH 722 0
DWIDTH 7 0
BBX 6 9 -1 0
BITMAP
08
14
0C
0C
14
24
44
7C
84
ENDCHAR

STARTCHAR Atilde
ENCODING 195
SWIDTH 722 0
DWIDTH 7 0
BBX 6 9 -1 0
BITMAP
1C
20
0C
0C
14
24
44
7C
84
ENDCHAR

STARTCHAR Adieresis
ENCODING 196
SWIDTH 722 0
DWIDTH 7 0
BBX 6 9 -1 0
BITMAP
14
00
0C
0C
14
24
44
7C
84
ENDCHAR

STARTCHAR Aring
ENCODING 197
SWIDTH 722 0
DWIDTH 7 0
BBX 6 10 -1 0
BITMAP
08
14
08
0C
0C
14
24
44
7C
84
ENDCHAR

STARTCHAR AE
ENCODING 198
SWIDTH 1000 0
DWIDTH 10 0
BBX 11 7 0 0
BITMAP
0FE0
1400
1400
27C0
3C00
4400
8FC0
ENDCHAR

STARTCHAR Ccedilla
ENCODING 199
SWIDTH 722 0
DWIDTH 7 0
BBX 7 9 1 -2
BITMAP
3C
42
80
80
80
84
78
10
70
ENDCHAR

STARTCHAR Egrave
ENCODING 200
SWIDTH 667 0
DWIDTH 7 0
BBX 7 9 1 0
BITMAP
10
08
3E
40
40
7C
40
40
FC
ENDCHAR

STARTCHAR Eacute
ENCODING 201
SWIDTH 667 0
DWIDTH 7 0
BBX 7 9 1 0
BITMAP
08
10
3E
40
40
7C
40
40
FC
ENDCHAR

STARTCHAR Ecircumflex
ENCODING 202
SWIDTH 667 0
DWIDTH 7 0
BBX 7 9 1 0
BITMAP
08
14
3E
40
40
7C
40
40
FC
ENDCHAR

STARTCHAR Edieresis
ENCODING 203
SWIDTH 667 0
DWIDTH 7 0
BBX 7 9 1 0
BITMAP
14
00
3E
40
40
7C
40
40
FC
ENDCHAR

STARTCHAR Igrave
ENCODING 204
SWIDTH 278 0
DWIDTH 3 0
BBX 3 9 1 0
BITMAP
40
20
20
20
40
40
40
80
80
ENDCHAR

STARTCHAR Iacute
ENCODING 205
SWIDTH 278 0
DWIDTH 3 0
BBX 4 9 1 0
BITMAP
10
20
20
20
40
40
40
80
80
ENDCHAR

STARTCHAR Icircumflex
ENCODING 206
SWIDTH 278 0
DWIDTH 3 0
BBX 3 9 1 0
BITMAP
40
A0
20
20
40
40
40
80
80
ENDCHAR

STARTCHAR Idieresis
ENCODING 207
SWIDTH 278 0
DWIDTH 3 0
BBX 4 9 1 0
BITMAP
50
00
20
20
40
40
40
80
80
ENDCHAR

STARTCHAR Eth
ENCODING 208
SWIDTH 722 0
DWIDTH 7 0
BBX 7 7 1 0
BITMAP
3C
66
42
F2
46
4C
F8
ENDCHAR

STARTCHAR Ntilde
ENCODING 209
SWIDTH 722 0
DWIDTH 7 0
BBX 7 9 1 0
BITMAP
0E
10
62
62
52
54
8C
8C
8C
ENDCHAR

STARTCHAR Ograve
ENCODING 210
SWIDTH 778 0
DWIDTH 8 0
BBX 7 9 1 0
BITMAP
10
08
3C
66
C2
82
86
CC
78
ENDCHAR

STARTCHAR Oacute
ENCODING 211
SWIDTH 778 0
DWIDTH 8 0
BBX 7 9 1 0
BITMAP
04
08
3C
66
C2
82
86
CC
78
ENDCHAR

STARTCHAR Ocircumflex
ENCODING 212
SWIDTH 778 0
DWIDTH 8 0
BBX 7 9 1 0
BITMAP
08
14
3C
66
C2
82
86
CC
78
ENDCHAR

STARTCHAR Otilde
ENCODING 213
SWIDTH 778 0
DWIDTH 8 0
BBX 7 9 1 0
BITMAP
1C
20
3C
66
C2
82
86
CC
78
ENDCHAR

STARTCHAR Odieresis
ENCODING 214
SWIDTH 778 0
DWIDTH 8 0
BBX 7 9 1 0
BITMAP
14
00
3C
66
C2
82
86
CC
78
ENDCHAR

STARTCHAR multiply
ENCODING 215
SWIDTH 584 0
DWIDTH 6 0
BBX 5 4 1 0
BITMAP
48
30
60
90
ENDCHAR

STARTCHAR Oslash
ENCODING 216
SWIDTH 778 0
DWIDTH 8 0
BBX 9 7 2 0
BITMAP
1F80
3300
6500
4900
5300
6600
BC00
ENDCHAR

STARTCHAR Ugrave
ENCODING 217
SWIDTH 722 0
DWIDTH 7 0
BBX 7 9 1 0
BITMAP
10
08
22
22
44
44
88
88
70
ENDCHAR

STARTCHAR Uacute
ENCODING 218
SWIDTH 722 0
DWIDTH 7 0
BBX 7 9 1 0
BITMAP
04
08
22
22
44
44
88
88
70
ENDCHAR

STARTCHAR Ucircumflex
ENCODING 219
SWIDTH 722 0
DWIDTH 7 0
BBX 7 9 1 0
BITMAP
08
14
22
22
44
44
88
88
70
ENDCHAR

STARTCHAR Udieresis
ENCODING 220
SWIDTH 722 0
DWIDTH 7 0
BBX 7 9 1 0
BITMAP
14
00
22
22
44
44
88
88
70
ENDCHAR

STARTCHAR Yacute
ENCODING 221
SWIDTH 667 0
DWIDTH 7 0
BBX 6 9 2 0
BITMAP
10
20
84
48
50
20
20
20
40
ENDCHAR

STARTCHAR Thorn
ENCODING 222
SWIDTH 667 0
DWIDTH 7 0
BBX 6 7 1 0
BITMAP
20
20
7C
44
44
78
C0
ENDCHAR

STARTCHAR germandbls
ENCODING 223
SWIDTH 611 0
DWIDTH 6 0
BBX 6 7 1 0
BITMAP
38
44
44
58
44
44
B8
ENDCHAR

STARTCHAR agrave
ENCODING 224
SWIDTH 556 0
DWIDTH 6 0
BBX 5 7 0 0
BITMAP
20
10
38
48
38
C8
F8
ENDCHAR

STARTCHAR aacute
ENCODING 225
SWIDTH 556 0
DWIDTH 6 0
BBX 5 7 0 0
BITMAP
08
10
38
48
38
C8
F8
ENDCHAR

STARTCHAR acircumflex
ENCODING 226
SWIDTH 556 0
DWIDTH 6 0
BBX 5 7 0 0
BITMAP
10
28
38
48
38
C8
F8
ENDCHAR

STARTCHAR atilde
ENCODING 227
SWIDTH 556 0
DWIDTH 6 0
BBX 5 7 0 0
BITMAP
18
20
38
48
38
C8
F8
ENDCHAR

STARTCHAR adieresis
ENCODING 228
SWIDTH 556 0
DWIDTH 6 0
BBX 5 7 0 0
BITMAP
28
00
38
48
38
C8
F8
ENDCHAR

STARTCHAR aring
ENCODING 229
SWIDTH 556 0
DWIDTH 6 0
BBX 5 8 0 0
BITMAP
10
28
10
38
48
38
C8
F8
ENDCHAR

STARTCHAR ae
ENCODING 230
SWIDTH 889 0
DWIDTH 9 0
BBX 9 5 1 0
BITMAP
3F00
4880
3F80
D800
EF00
ENDCHAR

STARTCHAR ccedilla
ENCODING 231
SWIDTH 556 0
DWIDTH 6 0
BBX 5 7 1 -2
BITMAP
78
88
80
88
70
A0
E0
ENDCHAR

STARTCHAR egrave
ENCODING 232
SWIDTH 556 0
DWIDTH 6 0
BBX 5 7 1 0
BITMAP
20
10
70
C8
F8
80
78
ENDCHAR

STARTCHAR eacute
ENCODING 233
SWIDTH 556 0
DWIDTH 6 0
BBX 5 7 1 0
BITMAP
08
10
70
C8
F8
80
78
ENDCHAR

STARTCHAR ecircumflex
ENCODING 234
SWIDTH 556 0
DWIDTH 6 0
BBX 5 7 1 0
BITMAP
10
28
70
C8
F8
80
78
ENDCHAR

STARTCHAR edieresis
ENCODING 235
SWIDTH 556 0
DWIDTH 6 0
BBX 5 7 1 0
BITMAP
28
00
70
C8
F8
80
78
ENDCHAR

STARTCHAR igrave
ENCODING 236
SWIDTH 278 0
DWIDTH 3 0
BBX 3 7 1 0
BITMAP
40
20
40
40
40
80
80
ENDCHAR

STARTCHAR iacute
ENCODING 237
SWIDTH 278 0
DWIDTH 3 0
BBX 4 7 1 0
BITMAP
10
20
40
40
40
80
80
ENDCHAR

STARTCHAR icircumflex
ENCODING 238
SWIDTH 278 0
DWIDTH 3 0
BBX 3 7 1 0
BITMAP
40
A0
40
40
40
80
80
ENDCHAR

STARTCHAR idieresis
ENCODING 239
SWIDTH 278 0
DWIDTH 3 0
BBX 3 7 1 0
BITMAP
A0
00
40
40
40
80
80
ENDCHAR

STARTCHAR eth
ENCODING 240
SWIDTH 611 0
DWIDTH 6 0
BBX 6 7 1 0
BITMAP
34
18
38
4C
84
C8
70
ENDCHAR

STARTCHAR ntilde
ENCODING 241
SWIDTH 611 0
DWIDTH 6 0
BBX 6 7 1 0
BITMAP
1C
20
58
64
44
44
88
ENDCHAR

STARTCHAR ograve
ENCODING 242
SWIDTH 611 0
DWIDTH 6 0
BBX 6 7 1 0
BITMAP
20
10
38
4C
84
C8
70
ENDCHAR

STARTCHAR oacute
ENCODING 243
SWIDTH 611 0
DWIDTH 6 0
BBX 6 7 1 0
BITMAP
08
10
38
4C
84
C8
70
ENDCHAR

STARTCHAR ocircumflex
ENCODING 244
SWIDTH 611 0
DWIDTH 6 0
BBX 6 7 1 0
BITMAP
10
28
38
4C
84
C8
70
ENDCHAR

STARTCHAR otilde
ENCODING 245
SWIDTH 611 0
DWIDTH 6 0
BBX 6 7 1 0
BITMAP
1C
20
38
4C
84
C8
70
ENDCHAR

STARTCHAR odieresis
ENCODING 246
SWIDTH 611 0
DWIDTH 6 0
BBX 6 7 1 0
BITMAP
28
00
38
4C
84
C8
70
ENDCHAR

STARTCHAR divide
ENCODING 247
SWIDTH 584 0
DWIDTH 6 0
BBX 5 5 1 0
BITMAP
10
00
F8
00
20
ENDCHAR

STARTCHAR oslash
ENCODING 248
SWIDTH 611 0
DWIDTH 6 0
BBX 7 5 1 0
BITMAP
3E
4C
98
E8
F0
ENDCHAR

STARTCHAR ugrave
ENCODING 249
SWIDTH 611 0
DWIDTH 6 0
BBX 5 7 1 0
BITMAP
20
10
48
48
90
90
F0
ENDCHAR

STARTCHAR uacute
ENCODING 250
SWIDTH 611 0
DWIDTH 6 0
BBX 5 7 1 0
BITMAP
08
10
48
48
90
90
F0
ENDCHAR

STARTCHAR ucircumflex
ENCODING 251
SWIDTH 611 0
DWIDTH 6 0
BBX 5 7 1 0
BITMAP
10
28
48
48
90
90
F0
ENDCHAR

STARTCHAR udieresis
ENCODING 252
SWIDTH 611 0
DWIDTH 6 0
BBX 5 7 1 0
BITMAP
28
00
48
48
90
90
F0
ENDCHAR

STARTCHAR yacute
ENCODING 253
SWIDTH 556 0
DWIDTH 6 0
BBX 6 9 0 -2
BITMAP
08
10
44
48
50
30
20
20
C0
ENDCHAR

STARTCHAR thorn
ENCODING 254
SWIDTH 611 0
DWIDTH 6 0
BBX 6 9 0 -2
BITMAP
20
20
3C
64
44
4C
78
40
80
ENDCHAR

STARTCHAR ydieresis
ENCODING 255
SWIDTH 556 0
DWIDTH 6 0
BBX 6 9 0 -2
BITMAP
28
00
44
48
50
30
20
20
C0
ENDCHAR
ENDFONT
